<svg xmlns="http://www.w3.org/2000/svg" viewBox="0 0 64 64">
  <g>
    <circle cx="32" cy="32" r="30" fill="#fffbe6" stroke="#2a3a5a" stroke-width="3"/>
    <g stroke="#2a3a5a" stroke-width="2" fill="none">
      <path d="M32 12
        C38 12, 44 18, 44 24
        C44 30, 38 36, 32 36
        C26 36, 20 30, 20 24
        C20 18, 26 12, 32 12Z"/>
      <path d="M50 44
        C54 38, 50 28, 44 28
        C38 28, 32 38, 32 44
        C32 50, 44 54, 50 44Z"/>
      <path d="M14 44
        C10 38, 14 28, 20 28
        C26 28, 32 38, 32 44
        C32 50, 20 54, 14 44Z"/>
    </g>
    <circle cx="32" cy="24" r="3" fill="#2a3a5a"/>
    <circle cx="44" cy="44" r="3" fill="#2a3a5a"/>
    <circle cx="20" cy="44" r="3" fill="#2a3a5a"/>
  </g>
</svg>
