<?xml version="1.0" encoding="UTF-8"?>
<svg width="120" height="120" viewBox="0 0 120 120" fill="none" xmlns="http://www.w3.org/2000/svg">
  <g>
    <path d="M60,60
      m-40,0
      a40,40 0 1,0 80,0
      a40,40 0 1,0 -80,0" stroke="#205020" stroke-width="8" fill="none"/>
    <path d="M60,60
      m-34,-20
      a20,20 0 1,1 34,20
      a20,20 0 1,1 -34,-20" stroke="#205020" stroke-width="8" fill="none"/>
    <path d="M60,60
      m34,-20
      a20,20 0 1,1 -34,20
      a20,20 0 1,1 34,-20" stroke="#205020" stroke-width="8" fill="none"/>
    <path d="M60,60
      m0,40
      a20,20 0 1,1 0,-40
      a20,20 0 1,1 0,40" stroke="#205020" stroke-width="8" fill="none"/>
  </g>
</svg>
